<svg xmlns="http://www.w3.org/2000/svg" viewBox="0 0 280 220" preserveAspectRatio="xMidYMid meet">
  <rect width="280" height="220" fill="#280063"/>
  <g transform="translate(0,8)">
    <path fill="#ffabff" d="M271.5,56.6h0c-5.2,19.2-22.6,32.6-42.5,32.6h-27.8l9.2-34.1h-124.6L100.2,1.2h128.8c28.9,0,50,27.4,42.5,55.4Z"/>
    <path fill="#b2f9eb" d="M185.1,149.1l-14.4,53.8H55.4c-35.7,0-61.7-33.9-52.5-68.4L24.2,55.1h61.5l-25.2,94h124.5Z"/>
    <path fill="#8b88f1" d="M201.2,89.3l9.2-34.1h-124.6,0s0,0,0,0l-25.2,94h31.3c0,0,0,0,0,0h13.8c5.4-5.4,9.4-11,12.2-16.4l69.1-43.4h14.2Z"/>
    <path fill="#280063" d="M105.7,149.1c28.4-28.4,16-59.9,16-59.9h79.5l-95.5,59.9Z"/>
  </g>
</svg>
